# xmcd
#
# Track frame offsets: 
#        150
#        19376
#        35495
#        54846
#        71306
#        84840
#        106490
#        125535
#        150535
#        170806
#        195270
#        217407
#        232537
#        257126
#
# Disc length: 3652 seconds
#
# Revision: 10
# Processed by: cddbd v1.5.2PL0 Copyright (c) Steve Scherf et al.
# Submitted via: ExactAudioCopyFreeDBPlugin 1.0
#
DISCID=b40e420e
DTITLE=Eric Burdon - 2006 - Soul Of A Man
DYEAR=2006
DGENRE=Rock
TTITLE0=Soul Of A Man
TTITLE1=Kingsize Jones
TTITLE2=Red Cross Store
TTITLE3=Como Se Llama Mama
TTITLE4=Forty Days And Forty Nights
TTITLE5=Feeling Blue
TTITLE6=Never Give Up Blues
TTITLE7=GTO
TTITLE8=Forty Four
TTITLE9=Slow Moving Train
TTITLE10=Don't Ever Let Nobody Drag Your Spirit Down
TTITLE11=Devil Run
TTITLE12=I Don't Mind
TTITLE13=Circuit Rider
EXTD=Label: SPV Recordings\nBestellnummer: SPV 78412 CD\nFirma: SPV Gm
EXTD=bH
EXTT0=
EXTT1=
EXTT2=
EXTT3=
EXTT4=
EXTT5=
EXTT6=
EXTT7=
EXTT8=
EXTT9=
EXTT10=
EXTT11=
EXTT12=
EXTT13=
PLAYORDER=
